<mxfile host="65bd71144e">
    <diagram id="IDprhGrEn4-6cy8bHLo-" name="Page-1">
        <mxGraphModel dx="1562" dy="800" grid="1" gridSize="10" guides="1" tooltips="1" connect="1" arrows="1" fold="1" page="1" pageScale="1" pageWidth="100" pageHeight="100" math="0" shadow="0">
            <root>
                <mxCell id="0"/>
                <mxCell id="1" parent="0"/>
                <mxCell id="20" value="" style="rounded=1;whiteSpace=wrap;html=1;fillColor=#f5f5f5;fontColor=#333333;strokeColor=none;" parent="1" vertex="1">
                    <mxGeometry x="-100" y="-49" width="160" height="269" as="geometry"/>
                </mxCell>
                <mxCell id="19" value="" style="rounded=1;whiteSpace=wrap;html=1;fillColor=#f5f5f5;fontColor=#333333;strokeColor=none;" parent="1" vertex="1">
                    <mxGeometry x="-270" y="-50" width="160" height="270" as="geometry"/>
                </mxCell>
                <mxCell id="2" value="同意退款" style="rounded=1;whiteSpace=wrap;html=1;fontFamily=仿宋;fillColor=#fff2cc;strokeColor=#d6b656;strokeWidth=2;fontSize=15;" parent="1" vertex="1">
                    <mxGeometry x="-250" width="120" height="60" as="geometry"/>
                </mxCell>
                <mxCell id="32" style="edgeStyle=none;html=1;exitX=0.5;exitY=1;exitDx=0;exitDy=0;entryX=0.5;entryY=0;entryDx=0;entryDy=0;fillColor=#f8cecc;strokeColor=#b85450;strokeWidth=3;" parent="1" source="6" target="31" edge="1">
                    <mxGeometry relative="1" as="geometry"/>
                </mxCell>
                <mxCell id="6" value="支付服务费" style="whiteSpace=wrap;html=1;rounded=1;fontFamily=仿宋;fillColor=#f8cecc;strokeColor=#b85450;strokeWidth=2;fontSize=15;" parent="1" vertex="1">
                    <mxGeometry x="-80" width="120" height="60" as="geometry"/>
                </mxCell>
                <mxCell id="21" value="成交供应商" style="text;html=1;align=center;verticalAlign=middle;resizable=0;points=[];autosize=1;strokeColor=none;fillColor=none;fontFamily=黑体;fontStyle=1;fontSize=18;" parent="1" vertex="1">
                    <mxGeometry x="-75" y="-48" width="110" height="40" as="geometry"/>
                </mxCell>
                <mxCell id="22" value="采购人" style="text;html=1;align=center;verticalAlign=middle;resizable=0;points=[];autosize=1;strokeColor=none;fillColor=none;fontStyle=1;fontFamily=黑体;fontSize=18;" parent="1" vertex="1">
                    <mxGeometry x="-230" y="-49" width="80" height="40" as="geometry"/>
                </mxCell>
                <mxCell id="31" value="正在退款中" style="whiteSpace=wrap;html=1;rounded=1;fontFamily=仿宋;fillColor=#f8cecc;strokeColor=#b85450;strokeWidth=2;fontSize=15;" parent="1" vertex="1">
                    <mxGeometry x="-80" y="130" width="120" height="60" as="geometry"/>
                </mxCell>
                <mxCell id="45" value="" style="rounded=1;whiteSpace=wrap;html=1;fillColor=#f5f5f5;fontColor=#333333;strokeColor=none;" parent="1" vertex="1">
                    <mxGeometry x="70" y="-49" width="160" height="368" as="geometry"/>
                </mxCell>
                <mxCell id="46" value="候选供应商" style="text;html=1;align=center;verticalAlign=middle;resizable=0;points=[];autosize=1;strokeColor=none;fillColor=none;fontFamily=黑体;fontStyle=1;fontSize=18;" parent="1" vertex="1">
                    <mxGeometry x="95" y="-48" width="110" height="40" as="geometry"/>
                </mxCell>
                <mxCell id="47" style="edgeStyle=orthogonalEdgeStyle;html=1;exitX=0.5;exitY=1;exitDx=0;exitDy=0;entryX=0.5;entryY=0;entryDx=0;entryDy=0;strokeWidth=3;fillColor=#f8cecc;strokeColor=#b85450;" parent="1" source="48" target="49" edge="1">
                    <mxGeometry relative="1" as="geometry"/>
                </mxCell>
                <mxCell id="48" value="五日内有息" style="whiteSpace=wrap;html=1;rounded=1;fontFamily=仿宋;fillColor=#f8cecc;strokeColor=#b85450;strokeWidth=2;fontSize=15;" parent="1" vertex="1">
                    <mxGeometry x="90" y="129" width="120" height="60" as="geometry"/>
                </mxCell>
                <mxCell id="49" value="&lt;div class=&quot;lake-content&quot;&gt;&lt;span class=&quot;ne-text&quot;&gt;正在退款中&lt;/span&gt;&lt;/div&gt;" style="whiteSpace=wrap;html=1;rounded=1;fontFamily=仿宋;fillColor=#f8cecc;strokeColor=#b85450;strokeWidth=2;fontSize=15;" parent="1" vertex="1">
                    <mxGeometry x="90" y="229" width="120" height="60" as="geometry"/>
                </mxCell>
                <mxCell id="50" value="" style="rounded=1;whiteSpace=wrap;html=1;fillColor=#f5f5f5;fontColor=#333333;strokeColor=none;" vertex="1" parent="1">
                    <mxGeometry x="240" y="-50" width="160" height="368" as="geometry"/>
                </mxCell>
                <mxCell id="51" value="未候选供应商" style="text;html=1;align=center;verticalAlign=middle;resizable=0;points=[];autosize=1;strokeColor=none;fillColor=none;fontFamily=黑体;fontStyle=1;fontSize=18;" vertex="1" parent="1">
                    <mxGeometry x="255" y="-49" width="130" height="40" as="geometry"/>
                </mxCell>
                <mxCell id="52" style="edgeStyle=orthogonalEdgeStyle;html=1;exitX=0.5;exitY=1;exitDx=0;exitDy=0;entryX=0.5;entryY=0;entryDx=0;entryDy=0;strokeWidth=3;fillColor=#f8cecc;strokeColor=#b85450;" edge="1" parent="1" source="53" target="54">
                    <mxGeometry relative="1" as="geometry"/>
                </mxCell>
                <mxCell id="53" value="五日内有息" style="whiteSpace=wrap;html=1;rounded=1;fontFamily=仿宋;fillColor=#f8cecc;strokeColor=#b85450;strokeWidth=2;fontSize=15;" vertex="1" parent="1">
                    <mxGeometry x="260" y="128" width="120" height="60" as="geometry"/>
                </mxCell>
                <mxCell id="54" value="&lt;div class=&quot;lake-content&quot;&gt;&lt;span class=&quot;ne-text&quot;&gt;正在退款中&lt;/span&gt;&lt;/div&gt;" style="whiteSpace=wrap;html=1;rounded=1;fontFamily=仿宋;fillColor=#f8cecc;strokeColor=#b85450;strokeWidth=2;fontSize=15;" vertex="1" parent="1">
                    <mxGeometry x="260" y="228" width="120" height="60" as="geometry"/>
                </mxCell>
                <mxCell id="56" style="edgeStyle=orthogonalEdgeStyle;html=1;exitX=0.5;exitY=1;exitDx=0;exitDy=0;fillColor=#fff2cc;strokeColor=#d6b656;strokeWidth=3;" edge="1" parent="1" source="2" target="31">
                    <mxGeometry relative="1" as="geometry"/>
                </mxCell>
                <mxCell id="57" style="edgeStyle=orthogonalEdgeStyle;html=1;exitX=0.5;exitY=1;exitDx=0;exitDy=0;fillColor=#fff2cc;strokeColor=#d6b656;strokeWidth=3;entryX=0.5;entryY=0;entryDx=0;entryDy=0;" edge="1" parent="1" source="2" target="48">
                    <mxGeometry relative="1" as="geometry">
                        <mxPoint x="-180" y="70" as="sourcePoint"/>
                        <mxPoint x="-10" y="140" as="targetPoint"/>
                    </mxGeometry>
                </mxCell>
            </root>
        </mxGraphModel>
    </diagram>
</mxfile>